<?xml version="1.0" standalone="no"?>
<!DOCTYPE svg PUBLIC "-//W3C//DTD SVG 20010904//EN"
 "http://www.w3.org/TR/2001/REC-SVG-20010904/DTD/svg10.dtd">
<svg version="1.0" xmlns="http://www.w3.org/2000/svg"
 width="450.000000pt" height="334.000000pt" viewBox="0 0 450.000000 334.000000"
 preserveAspectRatio="xMidYMid meet">
<metadata>
Created by potrace 1.10, written by Peter Selinger 2001-2011
</metadata>
<g transform="translate(0.000000,334.000000) scale(0.100000,-0.100000)"
fill="#faebd7" stroke="none">
<path d="M2106 3058 c-10 -15 -21 -26 -25 -24 -3 2 -15 -6 -26 -17 -20 -20
-20 -20 0 -13 35 13 39 12 43 -11 3 -17 0 -21 -12 -17 -11 4 -19 -2 -25 -19
-5 -13 -16 -27 -25 -30 -16 -6 -40 16 -29 26 3 4 0 7 -9 7 -8 0 -23 -18 -33
-41 -15 -33 -16 -44 -7 -60 16 -26 15 -49 -3 -49 -8 0 -15 7 -15 15 0 8 -7 15
-15 15 -23 0 -38 -39 -31 -86 5 -42 5 -43 -39 -69 -38 -22 -46 -32 -51 -66 -4
-22 -10 -42 -15 -45 -13 -8 -49 -94 -49 -118 1 -20 1 -20 14 -3 8 10 18 17 23
15 4 -2 9 7 11 20 4 26 14 28 32 7 16 -19 5 -49 -16 -41 -9 3 -12 2 -9 -4 9
-14 -4 -51 -16 -45 -5 4 -9 -1 -9 -9 0 -9 -4 -16 -9 -16 -11 0 -31 -56 -30
-84 0 -12 3 -15 6 -8 2 6 11 12 18 12 10 0 8 -11 -9 -42 -12 -24 -20 -54 -18
-67 5 -30 30 -71 44 -71 6 0 5 6 -2 15 -7 8 -9 22 -6 31 5 13 9 14 21 4 8 -7
15 -21 15 -31 0 -10 5 -21 10 -24 6 -3 10 -13 10 -21 0 -11 -4 -12 -16 -6 -13
7 -26 -1 -57 -35 -23 -25 -43 -40 -45 -34 -2 7 8 21 22 32 32 25 34 44 4 28
-55 -28 -77 -61 -94 -138 -20 -91 -27 -101 -54 -76 -11 10 -20 13 -20 7 0 -7
1 -13 2 -14 2 -2 -7 -17 -20 -35 -12 -17 -22 -39 -22 -50 -1 -26 -37 -66 -54
-60 -8 3 -16 16 -19 29 -4 21 -4 21 -6 -4 -1 -30 -19 -47 -30 -29 -4 6 -8 31
-10 55 -1 34 2 47 16 55 10 6 13 11 7 11 -5 0 -24 -15 -42 -33 -37 -39 -41
-77 -12 -114 11 -14 17 -30 14 -35 -9 -14 17 -88 30 -88 17 0 40 -60 28 -72
-12 -12 -89 63 -104 102 -14 34 -19 178 -8 218 10 40 -4 32 -33 -17 -17 -28
-17 -30 -1 -24 14 5 16 2 10 -18 -4 -13 -14 -64 -21 -114 -9 -62 -19 -93 -31
-102 -15 -11 -15 -13 -2 -13 9 0 24 21 38 52 22 52 39 53 40 1 0 -12 9 -27 19
-33 11 -5 21 -22 23 -37 2 -22 9 -29 31 -31 21 -3 27 -9 27 -27 0 -13 -5 -27
-10 -30 -10 -6 -68 9 -102 26 -10 5 -23 9 -30 9 -6 0 -19 7 -29 16 -14 12 -24
14 -46 6 l-28 -9 35 -11 c19 -5 68 -22 109 -37 l74 -26 78 17 c109 23 112 21
104 -73 -5 -59 -3 -89 9 -122 20 -56 20 -114 0 -153 -21 -40 -12 -97 18 -120
21 -15 22 -19 10 -50 -6 -19 -12 -62 -12 -95 0 -52 -4 -64 -27 -89 -61 -65
-93 -115 -93 -145 0 -35 -12 -59 -51 -109 -15 -19 -33 -57 -39 -85 -14 -59
-29 -115 -36 -132 -5 -10 29 -13 150 -13 86 0 156 3 156 6 0 3 -5 14 -10 25
-8 14 -6 27 6 50 l16 31 39 -38 c21 -21 39 -44 39 -51 0 -7 5 -13 11 -13 13 0
3 128 -11 145 -4 6 -8 42 -9 80 -1 39 -2 81 -2 94 -1 39 17 47 35 15 15 -29
16 -28 10 25 l-6 53 33 -7 c19 -4 35 -9 37 -10 6 -5 -10 -55 -17 -55 -4 0 -6
-14 -3 -30 4 -28 6 -29 17 -13 7 10 15 35 19 56 5 24 12 37 23 37 13 0 15 -10
9 -70 -5 -47 -4 -70 3 -70 6 0 11 -15 11 -32 0 -18 7 -46 15 -62 8 -15 15 -36
15 -46 0 -10 7 -23 15 -30 8 -7 15 -18 15 -24 1 -6 9 -21 19 -33 22 -27 26
-27 427 -25 l321 2 -4 93 c-6 142 -16 167 -90 239 -108 106 -116 115 -110 132
4 9 2 16 -3 16 -6 0 -10 6 -10 14 0 10 13 16 42 18 37 3 43 7 54 38 7 19 13
61 13 92 1 45 7 67 30 103 16 25 32 60 35 79 6 30 9 32 37 28 16 -2 27 -7 24
-10 -3 -3 1 -15 9 -27 8 -12 18 -62 22 -111 7 -93 16 -114 78 -181 30 -33 117
-62 147 -50 8 3 2 6 -12 6 -26 1 -59 28 -59 49 0 20 19 13 36 -13 15 -22 23
-25 79 -25 92 0 125 9 125 32 0 19 -1 19 -25 4 -27 -18 -75 -22 -75 -6 0 6 5
10 10 10 16 0 11 26 -8 43 -10 10 -27 17 -38 17 -18 -1 -18 -1 -2 -14 27 -20
10 -27 -28 -11 -21 8 -34 10 -34 4 0 -6 -10 -9 -22 -7 -15 2 -23 10 -23 23 0
19 4 21 53 24 l24 1 -25 30 c-14 16 -28 39 -32 50 -3 11 -14 20 -23 20 -10 0
-28 7 -40 16 -27 19 -29 4 -2 -21 11 -10 20 -22 20 -27 0 -16 -21 -7 -49 21
l-29 30 -5 -27 c-3 -14 -1 -36 4 -49 5 -14 5 -23 -1 -23 -15 0 -33 76 -26 113
4 19 13 40 21 47 19 16 19 34 0 26 -28 -10 -16 29 18 62 38 37 76 42 84 12 3
-11 12 -20 21 -20 12 0 13 3 4 12 -19 19 -14 38 11 38 22 1 22 1 2 16 -11 8
-26 12 -35 8 -8 -4 -40 -16 -70 -27 -30 -11 -67 -29 -81 -39 -18 -13 -34 -17
-52 -13 -31 8 -60 49 -53 73 6 19 81 62 109 62 9 0 17 7 17 15 0 20 -58 55
-91 55 -36 0 -69 39 -69 80 0 52 39 152 71 183 33 32 36 39 12 30 -29 -11 -67
-37 -85 -58 -23 -28 -34 -11 -14 21 11 15 15 35 12 49 -3 13 -2 27 4 30 5 3
10 18 10 31 0 29 20 28 35 -2 6 -11 18 -18 28 -16 24 5 21 21 -8 34 -37 17
-41 44 -11 83 94 122 181 112 249 -28 42 -86 43 -92 20 -106 -15 -8 -15 -11
-3 -26 12 -14 15 -12 33 27 26 55 26 145 1 183 -23 36 -93 65 -155 65 -62 0
-84 11 -97 50 -12 34 -33 42 -25 9 4 -14 0 -25 -11 -31 -9 -5 -16 -15 -16 -22
0 -8 -8 -13 -17 -12 -10 0 -19 -8 -21 -19 -2 -11 -16 -32 -31 -47 -15 -15 -33
-45 -40 -67 -8 -29 -17 -41 -31 -41 -10 0 -22 5 -25 10 -3 6 -19 10 -36 10
-22 0 -29 5 -29 19 0 10 -7 24 -15 31 -21 18 -19 29 10 42 14 6 25 17 25 25 0
7 6 13 13 13 17 0 44 63 29 68 -7 2 -12 10 -12 17 0 8 18 16 49 20 44 6 49 9
53 35 2 16 -4 46 -14 66 -10 21 -18 44 -18 51 0 19 41 16 56 -4 12 -17 13 -16
14 5 0 16 6 22 23 22 27 0 57 32 57 62 0 12 -9 41 -21 65 -12 24 -19 53 -16
64 3 12 -2 27 -12 37 -31 30 -58 84 -43 89 16 6 15 72 -3 103 -15 26 -20 75
-7 67 4 -3 7 35 8 85 1 79 -1 87 -11 61 -10 -21 -14 -24 -19 -13 -4 9 -4 27
-2 40 2 14 5 27 5 30 1 3 6 -2 11 -10 8 -12 10 -9 10 11 0 18 -6 28 -20 32
-11 3 -25 19 -31 36 -7 21 -15 29 -23 24 -17 -12 -59 -10 -63 4 -6 17 63 28
82 13 8 -7 15 -18 15 -25 0 -7 7 -16 16 -19 25 -9 -24 54 -51 66 -13 6 -26 20
-29 31 -3 12 -8 18 -12 14 -4 -4 -14 -1 -22 6 -12 9 -16 9 -19 0 -7 -19 -27
-16 -47 6 -17 19 -17 20 6 24 13 3 -2 3 -32 0 -85 -9 -139 -7 -153 6 -8 6 -39
12 -70 12 -43 1 -57 5 -59 18 -3 12 -8 10 -22 -11z m109 -47 c0 -16 -59 -35
-82 -27 -12 5 -10 10 8 26 27 22 74 23 74 1z m172 3 c-3 -3 -12 -4 -19 -1 -8
3 -5 6 6 6 11 1 17 -2 13 -5z m-33 -30 c24 -9 19 -24 -7 -24 -15 0 -26 -9 -35
-30 -15 -34 -27 -38 -36 -14 -9 25 1 50 27 62 27 13 31 14 51 6z m153 -21 c-4
-3 -7 0 -7 7 0 7 3 10 7 7 3 -4 3 -10 0 -14z m-367 -40 c0 -20 -3 -24 -11 -16
-7 7 -9 19 -6 27 10 24 17 19 17 -11z m290 -24 c0 -24 -23 -21 -28 4 -2 10 3
17 12 17 10 0 16 -9 16 -21z m-54 -74 c25 -13 29 -21 29 -57 0 -33 4 -42 15
-41 8 2 21 -6 28 -17 11 -18 9 -22 -12 -31 -13 -6 -29 -22 -36 -34 -13 -24 -6
-50 11 -39 5 3 17 0 26 -8 12 -10 17 -10 20 -1 2 7 11 9 19 6 16 -6 17 -2 8
21 -3 9 -15 16 -26 16 -10 0 -16 5 -13 10 8 12 35 13 54 1 19 -12 23 -135 5
-179 -7 -18 -16 -56 -20 -83 -8 -61 -70 -169 -109 -187 -50 -25 -91 -8 -177
75 -84 82 -118 147 -118 221 1 35 2 36 15 18 11 -14 15 -16 15 -5 0 8 -7 23
-15 33 -20 26 -19 61 2 94 27 42 53 55 53 27 0 -8 -4 -15 -9 -15 -10 0 -24
-30 -17 -37 2 -2 19 10 36 27 28 27 38 31 69 27 20 -3 44 -8 55 -12 14 -6 17
-4 14 11 -2 13 -16 22 -46 28 -23 6 -42 13 -42 18 0 4 4 8 9 8 5 0 17 3 27 7
13 5 15 3 9 -8 -7 -12 -6 -12 7 -1 9 7 19 24 22 38 7 28 45 84 57 84 4 0 20
-7 35 -15z m189 5 c3 -5 1 -10 -4 -10 -6 0 -11 5 -11 10 0 6 2 10 4 10 3 0 8
-4 11 -10z m47 -171 c-3 -20 -8 -27 -14 -21 -11 11 -2 52 11 52 4 0 6 -14 3
-31z m-722 -2 c0 -29 -44 -57 -61 -40 -8 8 -5 13 10 18 12 3 26 15 31 26 14
25 20 24 20 -4z m-20 -131 c0 -8 -4 -18 -10 -21 -5 -3 -10 -4 -10 -1 0 2 -3
11 -6 20 -4 11 -1 16 10 16 9 0 16 -6 16 -14z m234 -314 c9 -30 14 -62 11 -73
-5 -16 0 -23 24 -32 24 -9 31 -17 31 -39 0 -33 -1 -33 49 -7 22 11 45 18 50
14 20 -12 80 24 104 62 13 21 32 44 41 52 14 12 16 11 16 -9 0 -13 7 -28 17
-35 25 -18 10 -41 -45 -69 -26 -13 -66 -44 -87 -68 -21 -24 -48 -48 -59 -55
-19 -11 -19 -12 -3 -13 29 0 53 17 75 54 19 32 44 51 129 101 45 26 52 12 14
-30 -17 -20 -31 -41 -31 -46 0 -6 -14 -33 -32 -60 -31 -48 -32 -49 -82 -49
-85 0 -133 -24 -216 -104 -75 -74 -116 -103 -128 -91 -3 3 -1 15 6 25 7 12 8
20 2 20 -5 0 -10 11 -10 24 0 13 -6 27 -12 30 -9 3 -7 9 7 21 27 21 51 15 48
-13 -2 -19 0 -21 15 -13 38 21 94 79 81 83 -12 4 -12 7 0 22 8 9 11 19 9 22
-6 6 -68 -66 -68 -78 0 -5 -7 -8 -15 -8 -8 0 -15 7 -15 15 0 9 7 18 15 21 19
8 19 21 1 39 -17 17 -26 9 -26 -22 0 -16 -6 -23 -20 -23 -11 0 -20 5 -20 10 0
22 -22 8 -31 -19 -7 -20 -15 -28 -25 -24 -22 8 -17 -25 6 -37 30 -16 24 -30
-7 -21 l-28 8 3 -48 c3 -43 1 -51 -25 -74 l-28 -25 33 6 c21 4 32 3 32 -5 0
-17 28 -13 38 5 5 9 14 14 21 10 8 -5 7 -17 -4 -43 -8 -19 -15 -50 -15 -69 0
-18 -5 -36 -10 -39 -6 -4 -9 -35 -8 -70 2 -35 0 -66 -4 -70 -8 -9 -48 13 -48
26 0 6 -9 22 -20 36 -11 14 -20 21 -20 16 0 -22 37 -83 62 -103 22 -17 27 -28
24 -53 -2 -18 -4 -42 -5 -55 -1 -14 -5 -21 -12 -16 -8 4 -9 -1 -3 -17 4 -13 8
-35 8 -49 1 -23 -2 -25 -34 -22 -33 3 -80 35 -68 47 3 3 17 1 32 -4 17 -7 26
-7 26 -1 0 16 -33 74 -69 118 -29 38 -32 46 -26 85 4 23 12 48 18 55 6 8 10
28 9 45 -1 18 2 38 7 46 11 17 34 4 27 -15 -4 -11 -2 -12 14 -1 11 6 20 20 20
29 0 10 5 18 12 18 14 0 48 30 48 42 0 4 -9 8 -20 8 -11 0 -20 7 -20 16 0 8
-4 12 -10 9 -5 -3 -10 -14 -10 -24 0 -24 -22 -42 -39 -32 -20 13 -4 92 22 113
17 13 23 29 25 75 2 62 10 134 18 170 2 12 14 28 26 34 20 11 21 10 15 -27 -6
-36 -6 -37 9 -15 9 12 19 40 21 63 4 29 12 43 29 50 33 15 54 3 54 -31 0 -16
5 -33 12 -37 6 -4 9 -3 5 2 -3 5 -1 33 4 61 7 39 6 59 -3 80 -19 38 -12 182 6
162 7 -8 21 -38 30 -67z m-334 -173 c0 -13 -62 -91 -68 -85 -6 6 51 95 61 96
4 0 7 -5 7 -11z m50 -8 c0 -5 -7 -14 -15 -21 -21 -18 -11 -24 15 -10 39 21 33
2 -23 -72 -30 -40 -66 -96 -80 -123 -29 -58 -89 -236 -82 -244 3 -2 5 0 5 5 0
6 7 19 16 30 14 17 15 13 10 -61 -7 -113 10 -219 45 -274 33 -51 30 -63 -9
-35 -41 30 -95 141 -88 184 2 19 7 58 10 85 l6 50 -14 -40 c-18 -53 -19 -29
-1 75 8 47 17 103 21 125 8 46 52 139 95 197 29 41 38 65 19 53 -20 -12 -9 18
18 50 26 32 52 45 52 26z m47 -178 c-10 -31 -12 -53 -6 -64 13 -25 11 -37 -9
-57 -10 -10 -25 -34 -35 -54 -18 -38 -54 -57 -64 -32 -10 26 8 86 33 109 17
16 24 33 24 59 0 25 4 36 15 36 8 0 15 9 15 20 0 10 5 31 12 46 12 25 13 26
21 6 7 -15 5 -36 -6 -69z m486 31 c3 -3 -2 -25 -12 -48 -64 -145 -115 -293
-177 -515 -3 -8 -16 4 -33 29 -29 43 -63 69 -90 70 -12 0 -11 -3 1 -17 9 -10
25 -37 37 -60 12 -23 30 -47 41 -53 16 -8 20 -21 20 -58 0 -27 -6 -57 -14 -67
-8 -11 -12 -25 -9 -32 12 -30 -90 5 -152 53 -33 25 -34 27 -28 77 3 29 7 54 9
56 2 2 19 -7 38 -19 20 -12 36 -17 36 -11 0 6 -16 17 -35 25 l-35 15 0 75 c0
41 5 78 11 81 5 4 21 -5 35 -20 22 -23 31 -27 62 -21 20 3 49 6 63 6 14 0 34
7 45 15 17 14 10 15 -74 14 -59 -1 -98 3 -105 10 -16 16 -9 141 9 162 8 8 14
19 14 24 0 16 135 138 195 176 44 28 71 39 101 39 22 0 43 -3 47 -6z m-393
-170 c0 -16 -9 -18 -28 -6 -7 5 -10 16 -6 26 5 13 9 14 20 5 8 -6 14 -18 14
-25z m484 -25 c8 -17 13 -36 10 -44 -3 -7 3 -22 13 -33 31 -33 44 -61 37 -87
-3 -14 -10 -25 -15 -25 -5 0 -9 -13 -9 -29 0 -25 -6 -32 -35 -42 -37 -14 -42
-34 -9 -34 10 -1 25 -4 32 -9 7 -4 20 -5 30 -2 11 4 22 -2 31 -15 13 -22 13
-22 -61 -15 -69 6 -75 9 -109 46 -20 22 -42 40 -48 40 -6 0 -11 2 -11 4 0 2
-2 11 -5 19 -4 10 2 13 23 12 15 -1 34 -5 40 -9 13 -8 82 13 82 25 0 4 8 9 18
12 11 2 5 7 -18 13 -22 7 -36 17 -38 30 -5 26 -22 43 -22 21 0 -20 -26 -23
-33 -4 -10 26 8 82 26 81 12 -1 18 10 23 41 7 50 24 51 48 4z m-675 -143 c10
-12 7 -87 -5 -126 -5 -13 -6 -13 -14 0 -6 8 -10 24 -10 36 0 11 -7 35 -16 52
-8 18 -13 36 -9 42 9 14 41 12 54 -4z m876 -103 c-10 -69 -22 -86 -30 -43 -7
38 8 90 26 90 8 0 9 -15 4 -47z m-93 -213 c15 0 15 -3 3 -27 -15 -28 -78 -56
-107 -47 -9 2 -19 0 -23 -6 -14 -22 -60 -10 -83 23 l-22 32 32 8 c18 4 55 9
81 11 27 2 51 7 55 11 4 3 16 4 27 1 11 -3 28 -6 37 -6z m-576 -95 c15 -14 33
-25 40 -25 8 0 14 -4 14 -10 0 -15 -62 -12 -82 4 -19 14 -25 56 -9 56 6 0 22
-11 37 -25z m571 -63 c28 -16 20 -38 -17 -46 -21 -4 -31 -13 -36 -31 -5 -20
-12 -25 -39 -25 -19 0 -39 8 -50 20 -18 20 -17 20 8 20 35 0 34 17 0 32 -30
13 -39 14 -92 17 -51 2 -26 19 34 23 101 6 171 3 192 -10z m-229 -135 c23 -21
46 -22 62 -2 7 8 16 15 21 15 15 0 10 -50 -6 -56 -23 -9 -18 -33 11 -44 14 -6
23 -14 19 -20 -6 -10 -66 -2 -75 10 -13 19 -74 40 -114 40 -25 0 -48 5 -51 10
-3 6 -13 10 -22 10 -17 0 -53 28 -53 41 0 23 182 19 208 -4z m-378 -137 c0
-85 -2 -100 -16 -100 -14 0 -15 11 -10 90 l7 90 -53 0 c-38 0 -49 3 -38 10 8
5 36 10 63 10 l47 0 0 -100z m-120 38 c0 -16 -3 -19 -11 -11 -6 6 -8 16 -5 22
11 17 16 13 16 -11z m358 -6 c10 -14 12 -13 12 6 0 50 86 1 96 -55 3 -18 10
-30 15 -27 13 8 11 -10 -3 -24 -9 -9 -6 -12 15 -12 28 0 32 -6 18 -28 -5 -8
-23 -12 -47 -10 l-39 3 -3 50 c-4 55 -15 75 -43 75 -15 0 -17 -6 -14 -35 3
-19 10 -44 17 -55 17 -26 -1 -43 -36 -34 -29 7 -36 24 -9 24 13 0 11 6 -11 29
-16 16 -35 27 -42 24 -9 -3 -14 2 -14 15 0 11 -7 25 -15 32 -18 15 -20 37 -2
43 24 8 92 -5 105 -21z m865 -66 c23 -18 21 -28 -5 -24 -13 2 -24 11 -26 21
-4 20 6 21 31 3z m-553 -67 c0 -13 -7 -19 -24 -19 -30 0 -47 20 -40 47 5 19 8
20 35 6 17 -8 29 -22 29 -34z m-660 -10 c0 -18 6 -20 41 -17 51 4 66 -18 17
-23 -65 -7 -78 -1 -78 37 0 21 4 33 10 29 6 -3 10 -15 10 -26z"/>
<path d="M2188 2621 c-25 -12 -28 -17 -15 -19 10 -2 24 1 32 8 10 9 16 7 24
-7 11 -17 12 -17 26 1 15 20 15 20 30 0 13 -16 16 -17 24 -4 6 9 6 19 1 24
-15 15 -88 14 -122 -3z"/>
<path d="M2400 2485 c0 -17 -21 -20 -35 -6 -6 5 -25 7 -43 4 -32 -5 -33 -6
-12 -20 12 -8 24 -12 27 -9 3 3 12 1 20 -6 10 -8 20 -8 38 2 24 13 35 50 15
50 -5 0 -10 -7 -10 -15z"/>
<path d="M2292 2405 c-18 -8 -39 -21 -47 -29 -20 -20 -7 -22 106 -18 80 3 89
5 89 22 0 11 -9 24 -21 30 -25 14 -36 6 -20 -14 14 -17 -5 -26 -57 -26 l-37 0
30 25 c26 21 27 24 10 24 -11 0 -35 -6 -53 -14z"/>
<path d="M2358 2323 c7 -3 16 -2 19 1 4 3 -2 6 -13 5 -11 0 -14 -3 -6 -6z"/>
<path d="M2120 829 c0 -5 3 -9 8 -9 4 0 16 -12 26 -27 9 -16 15 -20 12 -10 -3
10 -6 24 -6 32 0 7 -9 15 -20 18 -11 3 -20 1 -20 -4z"/>
<path d="M2027 2983 c-4 -3 -7 -11 -7 -17 0 -6 5 -5 12 2 6 6 9 14 7 17 -3 3
-9 2 -12 -2z"/>
<path d="M4264 2602 c-22 -17 -103 -125 -179 -236 -54 -80 -292 -410 -365
-506 -31 -41 -74 -102 -96 -135 -96 -143 -344 -485 -382 -527 -18 -20 -35 -28
-59 -28 -19 0 -32 -4 -29 -9 3 -4 17 -6 31 -3 18 3 25 0 25 -12 0 -9 -7 -19
-15 -22 -8 -4 -15 -12 -15 -18 0 -20 -45 -39 -79 -34 -40 6 -40 -8 -1 -17 21
-5 30 -12 30 -27 0 -31 29 -48 57 -35 13 6 23 14 23 19 0 4 10 9 23 9 16 1 18
2 5 6 -10 2 -18 8 -18 12 0 13 36 42 43 34 4 -3 7 -1 7 5 0 7 4 12 10 12 15 0
5 -60 -11 -71 -11 -7 -11 -9 -1 -9 8 0 12 -6 9 -12 -2 -7 2 -21 11 -30 13 -16
12 -18 -12 -28 -39 -15 -49 -13 -43 9 4 17 2 18 -19 11 -35 -14 -82 -1 -104
28 -12 15 -20 19 -20 10 0 -8 6 -20 13 -27 10 -11 7 -12 -17 -7 -17 4 -35 14
-41 23 -11 14 -12 14 -18 0 -4 -11 13 -25 66 -51 63 -32 73 -35 83 -21 30 40
114 -6 114 -63 0 -20 44 -65 54 -55 11 11 7 33 -6 31 -7 -2 -14 7 -16 20 -3
22 12 31 23 12 3 -5 13 -6 21 -3 12 4 11 8 -8 19 -13 8 -31 17 -40 20 -10 3
-18 12 -18 20 0 7 6 11 14 8 17 -6 28 30 13 45 -7 7 -6 15 2 25 10 12 9 14
-10 9 -19 -5 -20 -3 -14 18 4 12 14 30 23 38 13 13 12 16 -7 25 -44 19 -37 49
33 148 36 51 111 158 166 238 56 80 120 170 142 200 22 30 61 87 86 125 25 39
76 111 112 160 37 50 102 142 145 205 43 63 108 156 145 205 113 151 140 196
140 226 0 34 1 33 -26 11z"/>
<path d="M345 2134 c-22 -9 -61 -22 -87 -31 -48 -15 -62 -35 -32 -47 9 -4 41
3 71 14 57 21 93 26 93 11 0 -5 -19 -11 -42 -15 -24 -4 -54 -14 -67 -23 -13
-8 -36 -19 -50 -23 -26 -8 -26 -8 5 -9 16 -1 39 6 50 14 22 16 104 20 104 5 0
-7 7 -7 20 0 16 9 22 8 27 -6 7 -18 -20 -44 -46 -44 -9 -1 -32 -15 -51 -31
l-35 -31 60 32 c35 18 69 29 83 27 16 -3 22 0 18 9 -8 21 21 37 59 31 27 -5
38 -2 49 14 12 18 11 23 -9 45 -12 13 -29 24 -37 24 -9 0 -21 7 -28 15 -7 8
-21 15 -31 15 -10 0 -21 5 -24 10 -9 14 -54 12 -100 -6z"/>
<path d="M635 2100 c3 -5 8 -10 11 -10 3 0 2 5 -1 10 -3 6 -8 10 -11 10 -3 0
-2 -4 1 -10z"/>
<path d="M625 2061 c5 -9 2 -19 -11 -28 -17 -13 -17 -14 11 -7 39 9 39 8 13
30 -12 10 -18 13 -13 5z"/>
<path d="M682 2030 c0 -14 2 -19 5 -12 2 6 2 18 0 25 -3 6 -5 1 -5 -13z"/>
<path d="M725 1995 c0 -42 -4 -57 -20 -69 -27 -21 -51 -15 -48 12 3 25 3 25
-30 13 -18 -7 -30 -6 -45 5 -13 9 -23 11 -27 4 -3 -5 -15 -10 -26 -10 -28 0
-24 -15 17 -55 24 -24 41 -34 53 -30 13 4 26 -5 45 -29 24 -32 31 -35 88 -38
61 -3 62 -3 83 -44 42 -79 127 -154 175 -154 9 0 21 -5 28 -12 21 -21 22 -3 1
40 -17 34 -22 67 -26 175 -5 131 -5 132 -36 165 -35 36 -62 45 -30 10 20 -24
38 -74 48 -140 6 -39 2 -43 -53 -41 -8 1 -6 -10 8 -32 21 -33 27 -90 11 -99
-14 -9 -43 43 -36 64 3 10 1 21 -5 25 -13 8 -13 59 1 108 6 22 9 41 6 43 -9 9
-36 -9 -42 -27 -11 -34 -35 -49 -78 -48 l-42 1 28 12 c37 16 47 33 47 79 0 31
3 38 18 35 9 -1 23 1 30 6 9 6 7 12 -12 27 -13 10 -28 19 -32 19 -4 0 -18 10
-31 22 -20 18 -23 19 -23 4 0 -9 11 -21 25 -26 25 -10 33 -34 15 -45 -5 -3
-10 -14 -10 -24 0 -23 -51 -71 -76 -71 -19 1 -19 1 0 15 13 10 20 28 21 55 1
22 4 42 7 46 6 6 -13 64 -22 64 -3 0 -5 -25 -5 -55z"/>
<path d="M2660 2036 c0 -2 7 -7 16 -10 8 -3 12 -2 9 4 -6 10 -25 14 -25 6z"/>
<path d="M329 1989 l-24 -20 28 17 c15 9 27 18 27 20 0 8 -8 4 -31 -17z"/>
<path d="M1036 1904 c-8 -22 -8 -24 6 -21 18 3 20 -129 2 -144 -19 -16 -18
-43 1 -35 13 4 14 -1 9 -34 -4 -25 -2 -45 5 -54 6 -7 9 -20 6 -29 -8 -18 31
-62 65 -72 14 -4 28 -13 32 -19 5 -7 8 -5 8 6 0 9 -16 30 -35 45 -24 19 -33
33 -29 46 3 10 0 24 -6 32 -8 10 -10 36 -5 83 7 67 -1 116 -29 185 -12 31 -21
34 -30 11z"/>
<path d="M1199 1850 c-24 -32 -39 -31 -40 3 l0 22 -9 -22 c-6 -16 -15 -21 -27
-17 -12 4 -10 -1 7 -15 14 -11 27 -21 30 -21 10 0 27 16 49 48 28 40 19 43
-10 2z"/>
<path d="M1489 1801 c-24 -20 -24 -20 -3 -21 12 0 25 7 28 16 10 25 1 27 -25
5z"/>
<path d="M2830 1701 c14 -11 31 -21 39 -21 18 0 14 4 -29 24 l-35 17 25 -20z"/>
<path d="M2785 1650 c-3 -5 -14 -10 -24 -10 -10 0 -24 -7 -31 -15 -11 -13 -8
-13 30 0 23 8 66 16 94 16 l51 1 -40 9 c-55 11 -73 11 -80 -1z"/>
<path d="M2802 1595 c-52 -28 -54 -46 -4 -22 30 14 40 14 94 4 23 -5 47 -19
62 -38 35 -42 35 -9 0 37 -24 31 -30 34 -78 33 -28 -1 -62 -7 -74 -14z"/>
<path d="M3020 1396 c0 -2 8 -10 18 -17 15 -13 16 -12 3 4 -13 16 -21 21 -21
13z"/>
<path d="M3018 1302 c13 -9 46 -38 73 -64 59 -58 70 -61 32 -11 -48 64 -82 93
-105 93 l-23 -1 23 -17z"/>
<path d="M2925 1260 c-4 -6 14 -10 47 -10 38 0 49 3 38 10 -20 13 -77 13 -85
0z"/>
<path d="M2870 1204 c-19 -8 -44 -13 -55 -10 -28 7 -88 -7 -93 -22 -4 -14 123
-18 132 -3 3 4 24 11 46 15 22 3 40 10 40 15 0 5 8 12 18 14 9 3 1 5 -18 5
-19 1 -51 -6 -70 -14z"/>
<path d="M3045 1150 c3 -5 8 -10 11 -10 3 0 2 5 -1 10 -3 6 -8 10 -11 10 -3 0
-2 -4 1 -10z"/>
<path d="M3100 1150 c-12 -8 -10 -10 8 -10 13 0 20 4 17 10 -7 12 -6 12 -25 0z"/>
<path d="M3075 1110 c27 -12 35 -12 35 0 0 6 -12 10 -27 9 -25 0 -26 -1 -8 -9z"/>
<path d="M2872 1094 c-23 -16 -22 -37 2 -28 14 6 30 -22 20 -37 -3 -5 0 -9 5
-9 6 0 11 -6 11 -13 0 -16 47 -40 61 -32 16 11 10 23 -16 29 -33 9 -35 53 -2
65 20 8 19 9 -13 16 -19 4 -37 11 -40 16 -4 5 -16 2 -28 -7z"/>
<path d="M3015 1088 c3 -8 -3 -23 -15 -33 -20 -19 -27 -45 -11 -45 5 0 11 7
15 15 3 8 13 15 21 15 20 0 17 51 -3 58 -7 2 -10 -2 -7 -10z"/>
<path d="M3369 1033 c-13 -16 -12 -17 4 -4 16 13 21 21 13 21 -2 0 -10 -8 -17
-17z"/>
<path d="M3000 934 c0 -23 35 -74 51 -74 11 0 22 -6 25 -14 3 -8 12 -12 20 -9
17 6 74 -16 74 -29 0 -5 8 -8 18 -6 12 2 18 -5 20 -26 3 -27 6 -28 40 -23 19
4 40 12 46 19 6 7 7 10 2 6 -6 -5 -16 -8 -23 -8 -20 0 -85 71 -79 86 3 9 -1
14 -14 14 -10 0 -23 7 -28 16 -8 14 -10 14 -21 0 -24 -28 -57 -20 -75 19 -11
22 -24 35 -36 35 -11 0 -20 -3 -20 -6z"/>
<path d="M3130 780 c0 -5 5 -10 10 -10 6 0 10 5 10 10 0 6 -4 10 -10 10 -5 0
-10 -4 -10 -10z"/>
<path d="M1810 480 c0 -16 53 -68 78 -75 38 -11 27 24 -13 41 -20 8 -38 21
-42 29 -6 17 -23 20 -23 5z"/>
</g>
</svg>
